<?xml version="1.0" encoding="utf-8"?><svg xmlns="http://www.w3.org/2000/svg" xmlns:xlink="http://www.w3.org/1999/xlink"><symbol fill="none" viewBox="0 0 12 18" id="icon-hero-icon_1" xmlns="http://www.w3.org/2000/svg"><path d="M6.212.298C2.802.18 0 2.989 0 6.472c0 3.952 3.687 6.82 5.753 10.946a.28.28 0 0 0 .503 0c1.87-3.712 5.064-6.2 5.656-9.776.613-3.7-2.054-7.217-5.7-7.344Zm-.208 9.41c-1.737 0-3.145-1.45-3.145-3.236 0-1.787 1.408-3.236 3.145-3.236S9.15 4.685 9.15 6.472c0 1.787-1.408 3.236-3.145 3.236Z" fill="#fff" opacity=".5"/></symbol><symbol fill="none" viewBox="0 0 16 18" id="icon-hero-icon_2" xmlns="http://www.w3.org/2000/svg"><g opacity=".5" fill="#fff"><path d="M11.983 3.942c.622 0 1.126-.533 1.126-1.197V1.493c0-.664-.504-1.199-1.126-1.199-.623 0-1.126.534-1.126 1.2v1.252c.001.663.504 1.196 1.126 1.196Z"/><path d="M15.983 2.368h-2.267v.61c0 1.005-.767 1.824-1.714 1.824s-1.713-.82-1.713-1.825v-.61H5.716v.61c0 1.006-.77 1.825-1.715 1.825-.946 0-1.714-.818-1.714-1.825v-.61L0 2.338v15.238h14.858L16 17.57l-.017-15.203ZM14.857 16.36H1.144V6.627h13.714v9.734h-.001Z"/><path d="M3.984 3.942c.622 0 1.127-.533 1.127-1.197V1.493C5.11.828 4.606.294 3.984.294S2.86.828 2.86 1.494v1.252c0 .663.503 1.196 1.125 1.196ZM7.52 7.933H5.719v1.693h1.8V7.933ZM10.434 7.933H8.63v1.693h1.803V7.933ZM13.131 7.933h-1.8v1.693h1.8V7.933ZM7.52 10.744H5.719v1.69h1.8v-1.69ZM10.434 10.744H8.63v1.69h1.803v-1.69ZM13.131 10.744h-1.8v1.69h1.8v-1.69ZM7.52 13.61H5.719V15.3h1.8V13.61ZM4.66 10.744h-1.8v1.69h1.8v-1.69ZM4.66 13.61h-1.8V15.3h1.8V13.61ZM10.434 13.61H8.63V15.3h1.803V13.61ZM13.131 13.61h-1.8V15.3h1.8V13.61Z"/></g></symbol><symbol fill="none" viewBox="0 0 16 18" id="icon-hero-icon_3" xmlns="http://www.w3.org/2000/svg"><g opacity=".5" fill="#fff"><path d="m1.084 10.312 7.363-7.806 1.227 1.302-7.363 7.805-1.227-1.301ZM0 12.764l1.806-.82-1.032-1.095L0 12.764ZM11.515 1.856a.96.96 0 0 0 0-1.301.853.853 0 0 0-1.228 0l-.613.65L10.9 2.506l.614-.65ZM8.854 2.073l.41-.434L10.49 2.94l-.41.434-1.227-1.301ZM14.553 4.696H16V1.45L.79 17.575H16v-1.227h-1.447c-.16 0-.289-.137-.289-.306 0-.17.13-.307.29-.307h1.445V14.51h-.867c-.16 0-.29-.138-.29-.307 0-.17.13-.307.29-.307h.867V12.67h-1.446c-.16 0-.289-.138-.289-.307 0-.17.13-.306.29-.306h1.445v-1.227h-.867c-.16 0-.29-.137-.29-.307 0-.169.13-.306.29-.306h.867V8.989h-1.446c-.16 0-.289-.137-.289-.306 0-.17.13-.307.29-.307h1.445V7.149h-.867c-.16 0-.29-.137-.29-.306 0-.17.13-.307.29-.307h.867V5.31h-1.446c-.16 0-.289-.138-.289-.307 0-.17.13-.307.29-.307Zm-.867 10.12c0 .169-.13.306-.29.306H7.074a.29.29 0 0 1-.267-.19.32.32 0 0 1 .063-.334l6.322-6.702a.277.277 0 0 1 .315-.066c.108.047.179.16.179.283v6.702Z"/></g></symbol><symbol fill="none" viewBox="0 0 25 24" id="icon-social_1" xmlns="http://www.w3.org/2000/svg"><rect x=".5" y=".5" width="23.774" height="23" rx="11.5" stroke="#fff" stroke-opacity=".32"/><path d="M14.71 7.806v1.348h-.839c-.665 0-.79.302-.79.733v.972h1.58l-.212 1.512h-1.368v3.887h-1.648v-3.887h-1.368V10.86h1.368V9.74c0-1.292.838-1.998 2.053-1.998.578 0 1.08.037 1.224.064Z" fill="#fff"/></symbol><symbol fill="none" viewBox="0 0 25 24" id="icon-social_2" xmlns="http://www.w3.org/2000/svg"><rect x="1.274" y=".5" width="23" height="23" rx="11.5" stroke="#fff" stroke-opacity=".32"/><path fill-rule="evenodd" clip-rule="evenodd" d="M7.742 15.292c.914.61 1.999.966 3.166.966 3.798 0 5.875-3.276 5.875-6.118 0-.093-.002-.185-.006-.277a4.288 4.288 0 0 0 1.03-1.113c-.37.171-.768.286-1.186.337.426-.264.753-.687.908-1.188a4.049 4.049 0 0 1-1.311.521 2.026 2.026 0 0 0-1.508-.678c-1.14 0-2.065.962-2.065 2.149 0 .169.019.332.054.49-1.716-.09-3.238-.945-4.256-2.246a2.21 2.21 0 0 0-.28 1.08c0 .746.365 1.405.919 1.79a1.981 1.981 0 0 1-.936-.269v.028c0 1.04.713 1.91 1.656 2.108a1.97 1.97 0 0 1-.932.037c.263.854 1.025 1.476 1.929 1.493a4.035 4.035 0 0 1-3.057.89" fill="#fff"/></symbol><symbol fill="none" viewBox="0 0 25 24" id="icon-social_3" xmlns="http://www.w3.org/2000/svg"><circle opacity=".32" cx="12.774" cy="12" r="11.5" stroke="#fff"/><g clip-path="url(#fa)" fill="#fff"><path d="M18.578 17.035h.003V13.06c0-1.945-.419-3.443-2.692-3.443-1.093 0-1.827.6-2.126 1.168h-.032V9.8h-2.155v7.236h2.244v-3.583c0-.944.179-1.856 1.347-1.856 1.152 0 1.169 1.077 1.169 1.916v3.523h2.242ZM7.92 9.799h2.248v7.236H7.921V9.799ZM9.044 6.194c-.718 0-1.301.583-1.301 1.301 0 .719.583 1.314 1.301 1.314.719 0 1.302-.595 1.302-1.314 0-.718-.584-1.301-1.302-1.301Z"/></g><defs><clipPath id="fa"><path fill="#fff" transform="translate(7.743 6.194)" d="M0 0h10.839v10.839H0z"/></clipPath></defs></symbol><symbol fill="none" viewBox="0 0 25 24" id="icon-social_4" xmlns="http://www.w3.org/2000/svg"><circle opacity=".32" cx="12.774" cy="12" r="11.5" stroke="#fff"/><g clip-path="url(#ga)" stroke="#fff" stroke-linecap="round" stroke-linejoin="round"><path d="m12.385 9.29.775-.774a2.19 2.19 0 0 1 3.096 3.097l-.774.774m-1.548 1.548-1.549 1.549a2.19 2.19 0 1 1-3.096-3.097l1.548-1.548M10.835 13.935l3.87-3.871"/></g><defs><clipPath id="ga"><path fill="#fff" transform="translate(7.743 6.968)" d="M0 0h10.065v10.065H0z"/></clipPath></defs></symbol></svg>