<svg width="12" height="18" viewBox="0 0 12 18" fill="none" xmlns="http://www.w3.org/2000/svg">
<g opacity="0.5">
<path d="M6.21191 0.298035C2.80106 0.17977 0 2.98931 0 6.47191C0 10.4243 3.6865 13.2926 5.75277 17.4177C5.85768 17.6272 6.15072 17.6274 6.25599 17.418C8.12524 13.7063 11.32 11.2173 11.9121 7.64151C12.5251 3.94123 9.85812 0.424511 6.21191 0.298035ZM6.00409 9.70768C4.26719 9.70768 2.8591 8.25892 2.8591 6.47191C2.8591 4.6849 4.26722 3.23614 6.00409 3.23614C7.74099 3.23614 9.1491 4.6849 9.1491 6.47191C9.1491 8.25892 7.74099 9.70768 6.00409 9.70768Z" fill="white"/>
</g>
</svg>
