<svg width="25" height="24" viewBox="0 0 25 24" fill="none" xmlns="http://www.w3.org/2000/svg">
<circle opacity="0.32" cx="12.7744" cy="12" r="11.5" stroke="white"/>
<g clip-path="url(#clip0_17910_205)">
<path d="M18.5779 17.0354V17.0349H18.5807V13.0598C18.5807 11.1152 18.162 9.61719 15.8886 9.61719C14.7957 9.61719 14.0623 10.2169 13.7628 10.7855H13.7312V9.79874H11.5757V17.0349H13.8202V13.4518C13.8202 12.5084 13.999 11.5962 15.1674 11.5962C16.3185 11.5962 16.3357 12.6728 16.3357 13.5123V17.0354H18.5779Z" fill="white"/>
<path d="M7.9209 9.79883H10.1681V17.035H7.9209V9.79883Z" fill="white"/>
<path d="M9.04422 6.1936C8.32571 6.1936 7.74268 6.77664 7.74268 7.49515C7.74268 8.21367 8.32571 8.80889 9.04422 8.80889C9.76274 8.80889 10.3458 8.21367 10.3458 7.49515C10.3453 6.77664 9.76229 6.1936 9.04422 6.1936V6.1936Z" fill="white"/>
</g>
<defs>
<clipPath id="clip0_17910_205">
<rect width="10.8387" height="10.8387" fill="white" transform="translate(7.74268 6.1936)"/>
</clipPath>
</defs>
</svg>
