<svg width="16" height="18" viewBox="0 0 16 18" fill="none" xmlns="http://www.w3.org/2000/svg">
<g opacity="0.5">
<path d="M1.08398 10.3115L8.4469 2.50635L9.67414 3.80758L2.31123 11.6128L1.08398 10.3115Z" fill="white"/>
<path d="M0 12.7638L1.80627 11.9432L0.774337 10.8489L0 12.7638Z" fill="white"/>
<path d="M11.5146 1.85574C11.8532 1.49655 11.8532 0.914283 11.5146 0.55495C11.1711 0.207595 10.6308 0.207595 10.2873 0.55495L9.67383 1.20534L10.9011 2.50643L11.5146 1.85574Z" fill="white"/>
<path d="M8.85449 2.07291L9.26362 1.63916L10.4906 2.94025L10.0816 3.37384L8.85449 2.07291Z" fill="white"/>
<path d="M14.5533 4.69642H15.9994V1.45044L0.790039 17.5749H15.9994V16.3484H14.5533C14.3935 16.3484 14.264 16.2111 14.264 16.0418C14.264 15.8724 14.3935 15.7351 14.5533 15.7351H15.9994V14.5086H15.1317C14.972 14.5086 14.8425 14.3713 14.8425 14.202C14.8425 14.0326 14.972 13.8953 15.1317 13.8953H15.9994V12.6688H14.5533C14.3935 12.6688 14.264 12.5315 14.264 12.3622C14.264 12.1929 14.3935 12.0556 14.5533 12.0556H15.9994V10.829H15.1317C14.972 10.829 14.8425 10.6917 14.8425 10.5224C14.8425 10.3531 14.972 10.2158 15.1317 10.2158H15.9994V8.98925H14.5533C14.3935 8.98925 14.264 8.85196 14.264 8.68262C14.264 8.51328 14.3935 8.37599 14.5533 8.37599H15.9994V7.14947H15.1317C14.972 7.14947 14.8425 7.01217 14.8425 6.84283C14.8425 6.6735 14.972 6.5362 15.1317 6.5362H15.9994V5.30968H14.5533C14.3935 5.30968 14.264 5.17238 14.264 5.00305C14.264 4.83371 14.3935 4.69642 14.5533 4.69642V4.69642ZM13.6856 14.8152C13.6856 14.9846 13.5561 15.1219 13.3964 15.1219H7.07442C6.95748 15.1219 6.85199 15.0472 6.80722 14.9325C6.76245 14.8179 6.78731 14.686 6.86992 14.5984L13.1919 7.89643C13.2746 7.80869 13.399 7.78249 13.5071 7.82995C13.6151 7.87741 13.6856 7.98911 13.6856 8.11323V14.8152Z" fill="white"/>
</g>
</svg>
