<svg width="25" height="24" viewBox="0 0 25 24" fill="none" xmlns="http://www.w3.org/2000/svg">
<circle cx="12.7742" cy="12" r="12" fill="#0077B7"/>
<g clip-path="url(#clip0_18125_165)">
<path d="M18.5778 17.0354V17.0349H18.5805V13.0598C18.5805 11.1152 18.1619 9.61719 15.8885 9.61719C14.7956 9.61719 14.0621 10.2169 13.7627 10.7855H13.7311V9.79874H11.5756V17.0349H13.8201V13.4518C13.8201 12.5084 13.9989 11.5962 15.1672 11.5962C16.3184 11.5962 16.3356 12.6728 16.3356 13.5123V17.0354H18.5778Z" fill="white"/>
<path d="M7.92093 9.79883H10.1682V17.035H7.92093V9.79883Z" fill="white"/>
<path d="M9.0441 6.1936C8.32559 6.1936 7.74255 6.77664 7.74255 7.49515C7.74255 8.21367 8.32559 8.80889 9.0441 8.80889C9.76262 8.80889 10.3457 8.21367 10.3457 7.49515C10.3452 6.77664 9.76217 6.1936 9.0441 6.1936V6.1936Z" fill="white"/>
</g>
<defs>
<clipPath id="clip0_18125_165">
<rect width="10.8387" height="10.8387" fill="white" transform="translate(7.74255 6.1936)"/>
</clipPath>
</defs>
</svg>
