<svg width="25" height="24" viewBox="0 0 25 24" fill="none" xmlns="http://www.w3.org/2000/svg">
<rect x="0.7742" width="24" height="24" rx="12" fill="#38A7DE"/>
<path fill-rule="evenodd" clip-rule="evenodd" d="M7.74194 15.292C8.6558 15.9025 9.74076 16.2581 10.9072 16.2581C14.7056 16.2581 16.7824 12.9815 16.7824 10.1403C16.7824 10.0472 16.7804 9.95507 16.7764 9.86299C17.1799 9.5596 17.5302 9.18117 17.8065 8.75004C17.4366 8.92143 17.0385 9.03639 16.6209 9.08749C17.0471 8.82296 17.3737 8.40035 17.5287 7.89896C17.1296 8.14486 16.6873 8.3237 16.2173 8.42004C15.8409 8.00275 15.3039 7.74194 14.7101 7.74194C13.5698 7.74194 12.6449 8.70373 12.6449 9.89067C12.6449 10.0599 12.6635 10.2233 12.6987 10.3809C10.9827 10.2915 9.46046 9.43559 8.44294 8.13475C8.2653 8.45304 8.16314 8.82136 8.16314 9.21577C8.16314 9.96146 8.52748 10.6199 9.08153 11.0052C8.74286 10.9951 8.42482 10.8977 8.14603 10.7364C8.14603 10.7455 8.14603 10.7545 8.14603 10.7636C8.14603 11.8047 8.8586 12.6744 9.80215 12.8718C9.62954 12.9213 9.44687 12.9469 9.25867 12.9469C9.12531 12.9469 8.99598 12.9341 8.87018 12.9086C9.13236 13.7634 9.89525 14.3851 10.7985 14.4016C10.092 14.9785 9.20281 15.3213 8.2346 15.3213C8.06803 15.3213 7.90398 15.3128 7.74194 15.292Z" fill="white"/>
</svg>
