<svg width="16" height="13" viewBox="0 0 16 13" fill="none" xmlns="http://www.w3.org/2000/svg">
<path d="M6.848 0.287998L4.472 8.928L3.68 5.688C4.712 5.688 5.552 5.988 6.2 6.588C6.848 7.188 7.172 8.016 7.172 9.072C7.172 10.104 6.836 10.944 6.164 11.592C5.516 12.216 4.7 12.528 3.716 12.528C2.708 12.528 1.868 12.216 1.196 11.592C0.548 10.944 0.224 10.104 0.224 9.072C0.224 8.76 0.248 8.46 0.296 8.172C0.344 7.86 0.44 7.5 0.584 7.092C0.728 6.684 0.932 6.144 1.196 5.472L3.284 0.287998H6.848ZM15.344 0.287998L12.968 8.928L12.176 5.688C13.208 5.688 14.048 5.988 14.696 6.588C15.344 7.188 15.668 8.016 15.668 9.072C15.668 10.104 15.332 10.944 14.66 11.592C14.012 12.216 13.196 12.528 12.212 12.528C11.204 12.528 10.364 12.216 9.692 11.592C9.044 10.944 8.72 10.104 8.72 9.072C8.72 8.76 8.744 8.46 8.792 8.172C8.84 7.86 8.936 7.5 9.08 7.092C9.224 6.684 9.428 6.144 9.692 5.472L11.78 0.287998H15.344Z" fill="#080808"/>
</svg>
