<svg width="25" height="24" viewBox="0 0 25 24" fill="none" xmlns="http://www.w3.org/2000/svg">
<rect x="1.27441" y="0.5" width="23" height="23" rx="11.5" stroke="white" stroke-opacity="0.32"/>
<path fill-rule="evenodd" clip-rule="evenodd" d="M7.74219 15.292C8.65605 15.9025 9.741 16.2581 10.9075 16.2581C14.7058 16.2581 16.7826 12.9815 16.7826 10.1403C16.7826 10.0472 16.7806 9.95507 16.7766 9.86299C17.1802 9.5596 17.5304 9.18117 17.8067 8.75004C17.4368 8.92143 17.0388 9.03639 16.6211 9.08749C17.0473 8.82296 17.3739 8.40035 17.5289 7.89896C17.1299 8.14486 16.6875 8.3237 16.2175 8.42004C15.8411 8.00275 15.3042 7.74194 14.7104 7.74194C13.57 7.74194 12.6451 8.70373 12.6451 9.89067C12.6451 10.0599 12.6637 10.2233 12.699 10.3809C10.983 10.2915 9.4607 9.43559 8.44318 8.13475C8.26554 8.45304 8.16339 8.82136 8.16339 9.21577C8.16339 9.96146 8.52772 10.6199 9.08177 11.0052C8.7431 10.9951 8.42506 10.8977 8.14628 10.7364C8.14628 10.7455 8.14628 10.7545 8.14628 10.7636C8.14628 11.8047 8.85885 12.6744 9.80239 12.8718C9.62979 12.9213 9.44712 12.9469 9.25891 12.9469C9.12556 12.9469 8.99623 12.9341 8.87042 12.9086C9.1326 13.7634 9.89549 14.3851 10.7988 14.4016C10.0923 14.9785 9.20305 15.3213 8.23485 15.3213C8.06828 15.3213 7.90423 15.3128 7.74219 15.292" fill="white"/>
</svg>
